<?xml version="1.0" standalone="no"?>
<!DOCTYPE svg PUBLIC "-//W3C//DTD SVG 20010904//EN"
 "http://www.w3.org/TR/2001/REC-SVG-20010904/DTD/svg10.dtd">
<svg version="1.0" xmlns="http://www.w3.org/2000/svg"
 width="32.000000pt" height="32.000000pt" viewBox="0 0 512.000000 512.000000"
 preserveAspectRatio="xMidYMid meet">

<g transform="translate(0.000000,512.000000) scale(0.100000,-0.100000)"
fill="#000000" stroke="none">
<path d="M4228 4629 c-519 -46 -1277 -364 -1793 -753 -213 -160 -436 -378
-582 -566 l-81 -105 -114 3 c-306 10 -557 -76 -752 -258 -199 -186 -341 -463
-411 -798 -20 -99 -19 -119 10 -147 33 -34 57 -33 490 15 198 22 367 40 376
40 13 0 17 -17 23 -97 4 -54 14 -113 22 -133 20 -49 357 -387 409 -410 24 -11
79 -21 138 -25 53 -4 97 -9 97 -11 0 -2 -20 -189 -45 -414 -50 -451 -50 -450
9 -479 26 -12 42 -11 135 8 241 50 478 152 642 275 285 215 418 505 407 889
l-3 108 55 41 c397 300 719 695 986 1211 178 345 318 748 369 1062 35 212 28
476 -13 517 -12 13 -45 21 -112 28 -105 11 -136 11 -262 -1z m-806 -940 c152
-51 261 -179 288 -338 31 -182 -65 -363 -237 -448 -65 -32 -86 -37 -161 -41
-139 -6 -244 38 -341 143 -113 123 -139 303 -67 462 88 192 317 290 518 222z"/>
<path d="M1236 1789 c-93 -22 -207 -100 -253 -172 -77 -122 -134 -393 -156
-739 -4 -68 -18 -64 163 -48 272 25 492 73 603 132 106 57 198 195 201 302 1
64 -16 70 -79 28 -90 -59 -246 -78 -324 -38 -96 50 -154 143 -154 246 1 76 32
178 70 229 42 55 13 80 -71 60z"/>
</g>
</svg>
